<svg version="1.1" id="Layer_1" xmlns="http://www.w3.org/2000/svg" xmlns:xlink="http://www.w3.org/1999/xlink" x="0px" y="0px"
	 width="100%" viewBox="0 0 496 496" enable-background="new 0 0 496 496" xml:space="preserve">
<path fill="#A4133C" opacity="1.000000" stroke="none" 
	d="
M298.504700,188.529633 
	C311.284729,172.785416 323.767731,157.255478 337.939575,143.071487 
	C337.750977,145.766266 335.845856,147.494461 334.373077,149.400070 
	C322.848816,164.311020 312.303406,179.819443 303.748535,196.685425 
	C300.550049,202.991333 298.917358,208.893280 302.171967,215.543427 
	C304.244751,219.778809 303.073914,222.724548 299.049622,225.583710 
	C289.691772,232.232239 280.750122,239.465881 271.619415,246.435669 
	C270.325256,247.423553 269.246124,248.824402 266.581726,248.976959 
	C252.345764,214.834656 230.302673,185.012009 209.052917,154.505066 
	C212.421921,151.795395 216.037399,151.798248 219.332428,151.142517 
	C233.192322,148.384262 247.104828,145.891113 260.975525,143.185410 
	C263.862549,142.622238 266.083221,142.969238 268.039398,145.412949 
	C275.026276,154.141098 281.417358,163.240875 286.712341,173.118210 
	C288.574493,176.591873 288.512543,179.157822 285.307343,181.802521 
	C282.107330,184.442932 279.136078,187.407028 276.346924,190.485107 
	C273.881378,193.206039 271.748138,193.424820 268.627228,191.365982 
	C261.673248,186.778564 254.351181,182.796524 246.496063,179.906281 
	C244.499542,179.171646 242.454117,178.569946 240.204498,178.217194 
	C252.992035,190.501190 263.675934,204.370621 273.529938,220.204971 
	C282.124329,209.299988 290.200836,199.052094 298.504700,188.529633 
z"/>
<path fill="#A4133C" opacity="1.000000" stroke="none" 
	d="
M233.663589,198.393906 
	C242.891556,213.213043 252.296005,227.522339 259.340973,244.238861 
	C255.982101,243.470688 255.390701,241.203278 254.348145,239.595490 
	C240.110657,217.639252 224.806442,196.486038 208.323013,176.135574 
	C202.825180,169.347977 197.389832,166.909378 189.108841,169.989761 
	C183.544647,172.059509 177.577377,173.040863 171.244507,176.475815 
	C200.647476,194.415939 224.920578,217.028580 245.787430,244.165710 
	C242.979340,244.676544 242.294098,243.069351 241.311066,242.116669 
	C225.698822,226.986465 208.265793,214.190323 190.287079,202.073944 
	C187.811478,200.405548 185.524246,199.970093 182.858719,201.350113 
	C179.942444,202.859955 176.639328,203.621033 173.328812,206.336639 
	C196.319870,217.188354 218.048798,229.220551 236.848862,246.332687 
	C234.823166,247.695389 233.892975,246.647980 232.999939,246.072754 
	C212.435104,232.826294 190.088120,223.276596 167.312531,214.697372 
	C162.424240,212.856033 160.408356,210.577423 160.506790,205.061554 
	C160.875214,184.413666 160.779343,163.753983 160.560471,143.101868 
	C160.512039,138.531982 161.919861,136.984482 166.478836,136.998077 
	C196.626709,137.087875 226.775208,136.972992 256.923492,136.950958 
	C258.004883,136.950165 259.309082,136.591476 260.360840,138.786346 
	C240.745758,143.240219 220.875992,145.520386 200.835144,150.849976 
	C212.003510,167.022385 222.731842,182.557602 233.663589,198.393906 
z"/>
<path fill="#A4133C" opacity="1.000000" stroke="none" 
	d="
M188.538635,306.009460 
	C189.866425,308.327240 194.188095,307.746399 193.358643,310.703430 
	C192.495621,313.780029 189.036087,312.266479 186.766586,312.274078 
	C183.068695,312.286499 179.232346,313.109955 174.908157,311.309479 
	C180.578629,306.806488 178.486786,300.922180 178.809601,295.535461 
	C178.949509,293.200958 178.903168,291.116608 176.219971,289.670074 
	C173.943405,288.442749 174.656876,286.787567 176.916962,285.711639 
	C181.804123,283.385071 185.669479,284.279114 189.085480,288.857208 
	C192.445862,284.842255 196.019913,283.223297 201.123199,286.527588 
	C203.547668,288.097382 205.000839,285.195923 206.007965,282.977478 
	C206.793152,281.247894 207.095428,278.909119 209.722977,278.825104 
	C212.585373,278.733551 212.658234,281.175201 213.106216,282.979370 
	C213.608093,285.000488 214.746033,285.577759 216.655655,285.691589 
	C220.179825,285.901703 223.581558,285.307129 227.043015,284.786652 
	C232.777466,283.924438 234.272186,285.373108 234.338882,291.113281 
	C234.379532,294.612610 234.286102,298.115051 234.396759,301.611511 
	C234.474396,304.064545 235.032669,306.597198 238.172073,306.403839 
	C241.081619,306.224670 241.940796,303.990479 241.665848,301.349548 
	C241.210281,296.973938 243.481354,291.942657 238.544937,288.600006 
	C237.865723,288.140076 238.062820,286.935577 238.817062,286.394287 
	C241.411575,284.532379 244.467392,284.263550 247.424469,284.766724 
	C250.175354,285.234802 250.880035,287.665161 250.910599,290.143158 
	C250.951675,293.473816 250.990265,296.816376 250.761169,300.135254 
	C250.521164,303.612274 249.610901,307.249481 255.074493,307.144379 
	C252.627548,312.747620 248.265747,314.352234 244.482361,311.260986 
	C242.676346,309.785370 241.453262,310.043854 239.607803,310.884186 
	C229.878860,315.314178 225.673492,312.515625 225.649246,301.740997 
	C225.643234,299.074524 225.597321,296.407410 225.642670,293.741821 
	C225.674545,291.867676 225.143311,290.670441 223.089615,290.104736 
	C219.355865,289.076141 213.448395,293.006866 213.358414,296.805206 
	C213.326859,298.137695 213.431000,299.476898 213.339066,300.803741 
	C213.122528,303.928864 213.878647,306.106598 217.648483,305.821381 
	C218.654160,305.745300 219.691925,305.966675 219.982803,307.205322 
	C220.247757,308.333527 219.727127,309.264130 218.795303,309.715790 
	C215.602264,311.263580 212.764496,314.338928 208.707611,312.688507 
	C204.705811,311.060547 204.502731,307.526855 204.645737,303.875641 
	C204.723938,301.878876 204.503662,299.862091 204.689621,297.879822 
	C205.001282,294.557617 204.269409,291.989288 200.557999,291.119202 
	C199.563446,293.194824 200.402481,296.493103 196.893066,297.267059 
	C193.539642,298.006622 193.781693,294.446808 191.969254,293.164703 
	C186.622101,296.207367 188.378433,301.181030 188.538635,306.009460 
z"/>
<path fill="#A4133C" opacity="1.000000" stroke="none" 
	d="
M328.392273,312.151520 
	C320.397034,312.220673 312.838440,312.220673 304.424591,312.220673 
	C312.336090,302.187042 307.484619,291.670593 308.735168,281.867920 
	C308.793579,281.410278 308.614929,280.857880 308.385376,280.437775 
	C305.423004,275.016541 305.430267,274.914948 311.951050,274.823364 
	C316.774689,274.755585 321.689423,274.372742 326.409637,275.112396 
	C337.385925,276.832458 340.122864,284.022156 333.484314,292.674408 
	C339.841187,298.620575 340.868286,303.459259 336.707672,308.017883 
	C334.591553,310.336426 331.733337,311.265961 328.392273,312.151520 
M326.490295,296.975159 
	C324.130890,295.573151 321.111877,294.019958 319.215424,296.313965 
	C317.212616,298.736572 317.726837,302.557495 318.881012,305.373779 
	C319.903656,307.869080 322.956909,307.177795 325.164032,306.667023 
	C329.120392,305.751312 329.780609,302.252045 326.490295,296.975159 
M323.237000,280.407623 
	C320.581451,280.576263 318.099701,281.099152 318.402924,284.546448 
	C318.586487,286.632568 317.083923,289.514618 320.251892,290.494049 
	C322.615051,291.224670 325.031036,290.456573 326.454010,288.426178 
	C328.912018,284.918976 327.618378,282.269501 323.237000,280.407623 
z"/>
<path fill="#A4133C" opacity="1.000000" stroke="none" 
	d="
M124.470055,288.432251 
	C122.688400,284.654327 122.944542,280.204926 118.134499,278.539429 
	C116.569778,277.997620 117.362152,275.623596 119.284119,275.434265 
	C124.505020,274.919922 129.770218,274.479156 136.262878,276.112732 
	C128.762344,281.318939 133.626526,286.360321 134.876099,291.346680 
	C135.792419,295.003143 137.479889,298.439270 138.569702,302.344147 
	C140.761505,295.975494 142.910904,289.591766 145.168640,283.246552 
	C145.935577,281.091217 145.420395,280.000824 143.266891,279.002014 
	C141.319534,278.098816 141.076782,275.992706 143.485336,275.533600 
	C147.923660,274.687714 152.490494,274.484772 157.446167,276.161652 
	C148.491501,285.635345 147.816193,297.767822 143.302826,308.255920 
	C142.166260,310.897034 141.067886,312.893982 137.860489,313.194031 
	C134.791672,313.481171 132.815948,312.723083 131.780151,309.549652 
	C129.509796,302.593964 127.005066,295.714783 124.470055,288.432251 
z"/>
<path fill="#A4133C" opacity="1.000000" stroke="none" 
	d="
M267.833801,284.627869 
	C276.408417,282.869049 280.283234,285.917999 280.357300,294.104919 
	C280.370819,295.599945 280.375275,297.095062 280.377106,298.590149 
	C280.381866,302.477051 279.437286,306.791290 284.986755,307.915161 
	C281.913483,312.704468 278.407166,314.015289 274.365021,311.496582 
	C271.602997,309.775574 270.049622,311.681580 268.058167,312.574554 
	C264.776672,314.045929 261.844055,313.170898 259.259979,311.043457 
	C257.011322,309.192139 256.191162,306.713593 257.235992,303.885803 
	C258.390900,300.760010 260.741821,299.151855 264.052124,298.934967 
	C265.046570,298.869781 266.049957,298.731293 267.037079,298.800537 
	C271.351044,299.103058 272.170776,296.632721 271.488312,293.127960 
	C271.168945,291.487915 270.520416,289.726196 268.523956,289.580292 
	C266.484406,289.431244 265.622620,290.941467 265.366760,292.738129 
	C265.074585,294.789551 264.254120,296.171021 261.930328,296.188843 
	C259.568939,296.206940 258.863159,294.669739 258.430023,292.735016 
	C257.945557,290.570953 257.304016,288.209625 259.847168,287.061218 
	C262.241547,285.979980 264.886810,285.454376 267.833801,284.627869 
M266.784882,306.075287 
	C268.816986,307.173645 270.474091,307.113800 271.623413,304.405731 
	C269.434113,303.176880 267.644043,302.371460 266.784882,306.075287 
z"/>
<path fill="#A4133C" opacity="1.000000" stroke="none" 
	d="
M408.424133,304.422943 
	C405.581879,302.704254 402.925598,301.316833 400.418182,299.698730 
	C397.699860,297.944489 396.256134,295.402130 396.758575,292.066986 
	C397.247559,288.821564 399.185638,286.680756 402.180389,285.467499 
	C406.038239,283.904510 410.008850,284.158630 413.953949,284.953003 
	C416.163086,285.397858 417.495209,286.813660 417.176849,289.231598 
	C416.923004,291.159607 417.002960,293.407074 414.588837,294.130249 
	C412.197510,294.846649 410.881073,293.633209 410.154388,291.391144 
	C409.703064,289.998627 408.670502,289.155212 407.080261,289.546814 
	C406.229584,289.756256 405.607117,290.321289 405.498016,291.255554 
	C405.335999,292.642456 406.280487,293.434479 407.269653,294.024048 
	C409.264709,295.213165 411.375977,296.206360 413.380646,297.380554 
	C416.843292,299.408630 418.907227,302.330963 417.942291,306.459503 
	C417.007172,310.460449 414.013123,312.635254 410.108887,313.150482 
	C407.506287,313.493927 404.747620,313.463470 402.166107,313.001129 
	C395.335632,311.777802 394.736786,310.013367 398.880096,304.129974 
	C401.627136,304.215454 403.499115,306.521393 406.022369,307.210693 
	C408.237427,307.815826 410.577698,308.389648 408.424133,304.422943 
z"/>
<path fill="#A4133C" opacity="1.000000" stroke="none" 
	d="
M389.876160,273.786011 
	C390.142944,283.326843 390.244049,292.467682 390.303192,301.608795 
	C390.320465,304.273804 390.101624,306.816711 392.911804,308.616791 
	C394.720428,309.775269 394.606140,311.900421 392.204865,312.076233 
	C387.373047,312.429962 382.497162,312.181488 376.242310,312.181488 
	C384.047485,304.477356 380.341949,296.183716 380.869965,288.597839 
	C381.177094,284.186493 383.045013,278.860077 377.546539,275.558105 
	C376.415039,274.878571 377.087463,273.204193 378.371246,272.810974 
	C382.178558,271.644836 386.149994,268.900848 389.876160,273.786011 
z"/>
<path fill="#A4133C" opacity="1.000000" stroke="none" 
	d="
M366.070557,312.346191 
	C363.498291,312.236359 361.316040,312.683777 359.244995,311.658173 
	C365.839844,301.512573 361.419891,290.434448 362.623535,279.938965 
	C362.826996,278.164490 361.563080,277.319031 360.199524,276.522644 
	C358.594604,275.585205 358.071899,274.016174 359.721771,272.956909 
	C362.267578,271.322418 365.310303,270.450439 368.284668,271.267944 
	C371.290588,272.094208 372.011475,274.763611 372.008606,277.642487 
	C372.000641,285.637939 372.010956,293.633392 372.032257,301.628815 
	C372.039276,304.261810 371.844086,306.747803 374.468384,308.769836 
	C376.454590,310.300232 375.708038,312.074432 373.033112,312.266937 
	C370.877838,312.422058 368.704712,312.329376 366.070557,312.346191 
z"/>
<path fill="#A4133C" opacity="1.000000" stroke="none" 
	d="
M288.361572,272.091400 
	C297.866028,270.314270 298.963287,271.208679 298.983002,280.370361 
	C298.997620,287.172607 298.966125,293.974976 298.986969,300.777161 
	C298.995941,303.707184 298.536377,306.629272 301.584595,308.817810 
	C303.287689,310.040558 302.802032,312.117462 300.427979,312.209747 
	C295.724884,312.392517 290.953125,312.944550 286.154449,311.711334 
	C292.923126,301.298279 288.362640,290.083740 289.588837,279.462799 
	C289.765564,277.932037 288.508850,277.224609 287.357666,276.466125 
	C284.663544,274.691010 285.704010,273.346436 288.361572,272.091400 
z"/>
<path fill="#A4133C" opacity="1.000000" stroke="none" 
	d="
M353.544373,287.800842 
	C353.797607,292.686249 353.925049,297.152039 354.028198,301.618378 
	C354.088562,304.233490 353.775848,306.775452 356.445343,308.722961 
	C358.067688,309.906555 357.815918,312.045624 355.388824,312.165741 
	C350.691986,312.398193 345.923950,312.910828 340.044220,311.431976 
	C346.432770,307.080597 344.451935,301.257538 344.648041,295.934723 
	C344.736725,293.527405 345.155609,291.096466 341.978027,289.733246 
	C340.064453,288.912323 340.477264,287.052460 342.256592,285.851105 
	C345.337433,283.770996 350.644745,284.496338 353.544373,287.800842 
z"/>
<path fill="#A4133C" opacity="1.000000" stroke="none" 
	d="
M161.023987,302.739197 
	C161.037140,299.453888 161.021072,296.621490 161.071869,293.790253 
	C161.099243,292.264191 161.303284,290.771637 159.309387,290.187927 
	C157.941422,289.787476 156.868408,288.893311 157.233841,287.278320 
	C157.540619,285.922516 158.902023,285.820953 159.985062,285.442108 
	C167.215576,282.912689 170.278534,285.089813 170.305176,292.793396 
	C170.316696,296.125275 170.382294,299.459320 170.286224,302.788422 
	C170.215424,305.242462 170.596924,307.167572 172.933258,308.734558 
	C174.809875,309.993225 174.252502,311.977600 171.971176,312.157440 
	C167.248795,312.529724 162.473862,312.704926 157.228638,311.942902 
	C158.597900,308.572571 162.025146,306.747009 161.023987,302.739197 
z"/>
<path fill="#A4133C" opacity="1.000000" stroke="none" 
	d="
M351.220886,280.471375 
	C346.054199,280.974548 342.900330,278.209961 344.475037,274.965668 
	C345.331116,273.201843 346.487549,271.140472 348.672516,271.114410 
	C350.952881,271.087250 352.657867,272.801849 353.691528,274.737396 
	C355.018738,277.222534 352.998077,278.680725 351.220886,280.471375 
z"/>
<path fill="#A4133C" opacity="1.000000" stroke="none" 
	d="
M163.832916,280.584167 
	C159.589020,278.001190 159.973923,275.322449 162.907166,272.385193 
	C165.849701,269.438629 167.583832,272.105988 169.475677,273.778687 
	C170.721191,274.879944 171.087784,276.302246 170.059982,277.765961 
	C168.637146,279.792145 167.325058,282.139191 163.832916,280.584167 
z"/>
</svg>